<svg xmlns="http://www.w3.org/2000/svg" version="1.1" xmlns:xlink="http://www.w3.org/1999/xlink" xmlns:svgjs="http://svgjs.dev/svgjs" width="100%" height="100%" viewBox="0 0 1000 600"><rect width="1000" height="600" x="0" y="0" fill="003366"/><g><circle r="166.66666666666666" cx="373.16002909342444" cy="395.3822000438107" fill="#d3d3d3" transform="matrix(0.6053464840537974,0,0,0.6053464840537973,0,60.656766572977304)"/><path d="M385.01450559201663 447.6691851362276L385.01450559201663 447.6691851362276Q385.01450559201663 449.6610700046986 383.21627619686916 451.26564392652256Q381.4180468017217 452.8425527807288 379.2325064599271 452.8425527807288L379.2325064599271 452.8425527807288Q378.81753044566227 452.8425527807288 378.042908552368 452.34458156361103Q377.24062159145603 451.84661034649326 376.82564557719127 451.4592993998461L376.82564557719127 451.4592993998461Q368.4707951566599 443.49175992596196 359.12000230189307 435.71787592540136Q349.7415443795086 427.94399192484076 340.19709605141816 419.78279697763304Q330.6249826557101 411.62160203042527 321.35718500379625 402.6581201223056Q312.08938735188235 393.6946382141859 303.92819240467463 383.12658238424234L303.92819240467463 383.12658238424234Q306.52870876073405 393.8882936875095 310.89978944432323 405.9502631688063Q315.2985351955301 417.98456758248557 319.3653001353252 428.5526234124291Q323.4597301427379 439.1206792423727 326.44755744544443 446.7839029724627Q329.435384748151 454.4471267025527 329.435384748151 456.43901157102374L329.435384748151 456.43901157102374Q329.435384748151 458.8182073861419 327.52649508253296 460.3121210374952Q325.6452704845325 461.80603468884846 323.6533856160615 461.80603468884846L323.6533856160615 461.80603468884846Q322.46378770850237 461.80603468884846 321.052869260002 459.3161786032597Q319.66961587911936 456.8263225176709 317.98204675444254 452.8425527807288Q316.29447762976565 448.8587830437867 314.5792434374712 443.9897311430797Q312.8916743127943 439.1206792423727 311.31476545858806 434.22396227404806Q309.71019153676417 429.35491037334106 308.3269381558815 425.0668248926048Q306.91601970738117 420.77873941186857 306.1137327464692 417.98456758248557L306.1137327464692 417.98456758248557L300.74670962864445 401.85583316139366Q298.948480233497 396.6824655168925 297.1502508383495 391.2047821285971Q295.37968651081974 385.72709874030176 293.88577285946644 380.9410420424477Q292.39185920811315 376.1549853445937 291.4789119767306 372.5861916219164Q290.5936298129657 368.98973283162144 290.5936298129657 367.8001349240623L290.5936298129657 367.8001349240623Q290.5936298129657 365.6145945822677 291.17459623293644 363.3183939700025Q291.7832277205248 361.02219335773725 293.3878016423487 361.02219335773725L293.3878016423487 361.02219335773725Q294.3837440765842 361.02219335773725 294.7710550232313 361.520164574855Q295.1583659698785 362.0181357919728 295.5733419841433 362.0181357919728L295.5733419841433 362.0181357919728L297.9525377992615 361.02219335773725Q298.948480233497 361.02219335773725 301.4383363190858 363.5120494433261Q303.92819240467463 366.0019055289149 307.22033545117534 369.98567526585697Q310.5124784976761 373.96944500279903 314.30259276129465 378.94915717397663Q318.0650419572955 383.9288693451543 321.9658164913846 388.7149260430083Q325.8389259578561 393.5009827408623 329.3247244776804 397.678407951128Q332.81052299750473 401.85583316139366 335.60469482688774 404.2626940441295L335.60469482688774 404.2626940441295Q339.975775510477 408.24646378107155 344.37452126168387 411.81525750374885Q348.74560194527305 415.4117162940438 353.22734289933294 419.0911702871917Q357.70908385339277 422.7706242803396 362.68879602457037 426.94804949060523Q367.66850819574796 431.15313976848853 373.6441628011611 436.5201628863133L373.6441628011611 436.5201628863133Q373.8378182744847 436.7138183596369 374.6401052353966 436.7138183596369L374.6401052353966 436.7138183596369Q375.05508124966144 436.7138183596369 375.05508124966144 435.71787592540136Q375.05508124966144 434.7219334911658 375.05508124966144 433.3386801102832L375.05508124966144 433.3386801102832Q375.05508124966144 430.5445082809002 373.4505073278375 423.26859549745734Q371.8459334060136 415.9926827140145 368.96876637377767 406.3375741154535Q366.0915993415417 396.6824655168925 362.30148507792325 385.6164384698311Q358.5113708143047 374.57807649038745 354.2232853335684 364.314336404238Q349.93519985283217 354.05059631808865 345.25980342544875 345.6957458975573Q340.58440699806533 337.31323040940833 336.2133263144761 332.7484942524955L336.2133263144761 332.7484942524955Q334.9960633392993 331.55889634493644 334.49809212218156 329.1520354622006Q334.0001209050638 326.77283964708244 334.0001209050638 325.1682657252585L334.0001209050638 325.1682657252585Q334.0001209050638 323.78501234437584 335.9090105706819 322.09744321969896Q337.79023516868233 320.3822090274045 339.3948090905062 320.3822090274045L339.3948090905062 320.3822090274045Q341.7740049056244 320.3822090274045 344.761832208331 325.1682657252585Q347.7496595110375 329.95432242311256 351.15246282800894 337.6175461532025Q354.52760107736265 345.2807698832925 358.01339959718695 354.8528832790006Q361.4991981170113 364.42499667470867 364.87433636636496 374.1631004761226L364.87433636636496 374.1631004761226Q368.8581061033071 385.72709874030176 372.3439046231314 396.98678126068666Q375.82970314295574 408.24646378107155 378.54087976948574 417.98456758248557Q381.2243913283981 427.75033645151717 382.911960453075 435.52422045207777Q384.5995295777518 443.29810445263837 385.01450559201663 447.6691851362276ZM455.5050978817974 464.21289557158434L455.5050978817974 464.21289557158434Q455.7264184227386 465.0151825324963 455.7264184227386 465.7068092229376Q455.7264184227386 466.39843591337893 455.7264184227386 466.7857468600261L455.7264184227386 466.7857468600261Q455.7264184227386 468.77763172849717 454.8134711913561 469.5799186894091Q453.92818902759115 470.38220565032105 451.32767267153173 470.38220565032105L451.32767267153173 470.38220565032105Q448.94847685641355 470.38220565032105 448.1461898955016 469.5799186894091L448.1461898955016 469.5799186894091Q446.95659198794255 468.39032078185 444.9647071194714 463.41060861067234Q442.9728222510004 458.4308964394948 440.7872819092058 451.6529548731697Q438.57407649979353 444.8750133068446 436.49919642846953 437.1287943739017Q434.3966512895279 429.35491037334106 432.81974243532164 422.38331333369246L432.81974243532164 422.38331333369246Q430.6065370259094 423.37925576792793 426.8440878299085 424.45819340501646Q423.05397356629 425.5647961097226 419.0702038293479 426.5607385439581L419.0702038293479 426.5607385439581Q414.4778026048175 427.55668097819364 409.49809043363985 428.7462788857527L409.49809043363985 428.7462788857527Q407.6998610384924 437.32244984722524 406.8145788747275 443.38109965549137Q405.92929671096255 449.46741453137514 405.2100049529036 453.34052399784656Q404.51837826246225 457.2412985319357 403.4394406253738 459.1225231299361Q402.33283792066766 461.0314127955542 399.9536421055494 461.0314127955542L399.9536421055494 461.0314127955542Q398.3490681837256 461.0314127955542 397.1594702761665 459.23318340040674Q395.96987236860735 457.43495400525927 395.96987236860735 453.8384952149643L395.96987236860735 453.8384952149643Q395.96987236860735 452.0679308874345 396.9658148028429 445.483644794433Q397.9617572370784 438.8993587014315 399.15135514463753 430.84882402469435Q400.3409530521966 422.7706242803396 401.5305509597557 414.8030848064554Q402.7201488673148 406.83554533257126 403.1351248815796 402.2708091756584L403.1351248815796 402.2708091756584Q403.32878035490313 399.8639482929226 404.4353830596093 394.49692517509783Q405.5143206966978 389.1022369896554 406.70391860425684 383.4308981280365Q407.9211815794336 377.75955926641757 409.1107794869927 373.1671580418871Q410.3003773945518 368.6024218849743 410.68768834119896 367.9937903973859L410.68768834119896 367.9937903973859Q413.89683618484673 360.63488241109013 414.7821183486117 352.86099841052953Q415.66740051237656 345.08711440996893 416.1653717294943 338.61348858743804Q416.6633429466121 332.13986276490715 417.8806059217888 328.07309782511214Q419.0702038293479 323.97866781769943 422.86031809296645 323.97866781769943L422.86031809296645 323.97866781769943Q423.8562605272019 323.97866781769943 424.93519816429045 325.5832417395233Q426.0418008689966 327.16015059372955 427.0377433032321 329.34569093552415Q428.03368573746764 331.55889634493644 428.61465215743834 333.63377641626045Q429.2232836450267 335.7363215552021 429.4169391183503 336.9259194627612L429.4169391183503 336.9259194627612Q429.6105945916738 338.11551737032033 429.91491033546805 341.7119761606152Q430.2192260792622 345.2807698832925 430.5235418230564 349.56885536402876Q430.8278575668506 353.85694084476506 431.1045082430271 357.9513708521777Q431.40882398682135 362.0181357919728 431.6024794601449 364.20367613376743L431.6024794601449 364.20367613376743Q432.21111094773323 370.7879622267689 433.511369125763 378.94915717397663Q434.81162730379265 387.1103521211844 436.19488068467535 394.30326970177424Q437.57813406555806 401.4685222147465 438.79539704073477 406.3375741154535Q439.98499494829383 411.23429108377815 440.5659613682646 411.23429108377815L440.5659613682646 411.23429108377815Q441.36824832917654 411.23429108377815 442.66850650720625 410.8193150695134Q443.96876468523595 410.4320041228662 445.158362592795 410.4320041228662L445.158362592795 410.4320041228662Q446.76293651461896 410.4320041228662 446.76293651461896 412.00891297707244L446.76293651461896 412.00891297707244Q446.76293651461896 413.6134868988963 445.960649553707 414.60942933313186Q445.158362592795 415.6053717673674 444.27308042903013 416.40765872827933Q443.36013319764754 417.2099456891913 442.66850650720625 417.790912109162Q441.9768798167649 418.39954359675033 441.9768798167649 419.2018305576623L441.9768798167649 419.2018305576623Q441.9768798167649 420.77873941186857 443.77510921191237 427.36302550487005L443.77510921191237 427.36302550487005L446.95659198794255 439.1206792423727Q447.34390293458966 440.69758809657895 448.75482138309 444.4877023601975Q450.13807476397267 448.27781662381597 451.6319884153259 452.34458156361103Q453.1259020666792 456.43901157102374 454.3154999742383 459.9248100908481Q455.5050978817974 463.41060861067234 455.5050978817974 464.21289557158434ZM411.2963198287873 418.5931990700739L411.2963198287873 418.5931990700739Q412.48591773634644 418.5931990700739 415.66740051237656 417.90157237963257Q418.87654835602433 417.2099456891913 422.25168660537804 416.21400325495574Q425.62682485473175 415.2180608207202 428.22734121079117 414.2221183864847Q430.8278575668506 413.2261759522492 430.8278575668506 412.6175444646608L430.8278575668506 412.6175444646608Q430.8278575668506 412.00891297707244 430.1085658087916 409.5190568914836Q429.4169391183503 407.02920080589485 428.53165695458534 403.15609133942337Q427.6187097232028 399.2829818729519 426.6227672889673 394.30326970177424Q425.62682485473175 389.3235575305967 424.85220296143746 383.7352138718307L424.85220296143746 383.7352138718307Q424.4372269471727 380.13875508153575 423.8562605272019 373.96944500279903Q423.24762903961357 367.8001349240623 422.6389975520252 361.7138200481786Q422.0580311320545 355.65517023991254 421.6430551177897 351.25642448870565Q421.2557441711425 346.8853438051164 421.2557441711425 346.8853438051164L421.2557441711425 346.8853438051164Q421.2557441711425 346.8853438051164 420.64711268355416 349.76251083735235Q420.06614626358345 352.66734293720594 419.3745195731421 356.1531414570303Q418.6552278150831 359.6389399768546 418.15725659796533 362.70976248241413Q417.6592853808476 365.8082500555913 417.6592853808476 366.19556100223843L417.6592853808476 366.19556100223843L417.6592853808476 371.78390466100444Q417.6592853808476 372.17121560765156 417.16131416372986 375.26970318082874Q416.6633429466121 378.3681907540059 415.8887210533178 383.04358718138934Q415.08643409240585 387.71898360877276 414.17348686102326 393.1966669970681Q413.2882046972584 398.67435038536354 412.48591773634644 403.6540625565411Q411.6836307754345 408.63377472771873 411.18565955831673 412.5068841941902Q410.68768834119896 416.40765872827933 410.68768834119896 417.790912109162L410.68768834119896 417.790912109162Q410.68768834119896 418.5931990700739 411.2963198287873 418.5931990700739Z " fill="#003366" transform="matrix(0.6053464840537974,0,0,0.6053464840537973,0,60.656766572977304)"/><path d="M716.479385761837 447.9341601832623L716.479385761837 447.9341601832623Q716.479385761837 449.9028076276376 714.7021345967757 451.4886625133845Q712.9248834317148 453.047175073515 710.7648397080252 453.047175073515L710.7648397080252 453.047175073515Q710.3547048237803 453.047175073515 709.5891197065232 452.55501321242116Q708.7961922636498 452.0628513513273 708.3860573794049 451.6800587926988L708.3860573794049 451.6800587926988Q700.1286750432748 443.8054690151973 690.8869689849571 436.12227551701005Q681.6179206010231 428.43908201882283 672.184818263391 420.3730959620071Q662.7243736001428 412.3071099051913 653.5646945186741 403.44819640550213Q644.4050154372053 394.589282905813 636.3390293803895 384.14451452037696L636.3390293803895 384.14451452037696Q638.9092079883239 394.7806791851272 643.2292954357033 406.7019331538448Q647.5767252086989 418.595844796946 651.5960470742987 429.040613182382Q655.6427112655147 439.485381567818 658.5956824320778 447.0592057635399Q661.5486535986408 454.6330299592618 661.5486535986408 456.6016774036372L661.5486535986408 456.6016774036372Q661.5486535986408 458.9531174066411 659.6620331311144 460.42960298992267Q657.8027549892042 461.90608857320416 655.834107544829 461.90608857320416L655.834107544829 461.90608857320416Q654.658387543327 461.90608857320416 653.2639289368944 459.445279267735Q651.8968126560782 456.9844699622658 650.2289307934824 453.047175073515Q648.5610489308865 449.1098801847642 646.8658247426745 444.2976308762911Q645.1979428800787 439.485381567818 643.6394303199481 434.6457899337285Q642.0535754342013 429.8335406252554 640.6864591533852 425.59548015472507Q639.2920005469525 421.3574196841948 638.4990731040791 418.595844796946L638.4990731040791 418.595844796946L633.1946619345122 402.6552689626287Q631.4174107694511 397.542254072376 629.64015960439 392.12847360034374Q627.8902507649452 386.71469312831147 626.4137651816636 381.98447079668733Q624.9372795983821 377.25424846506314 624.0349828530434 373.7270884605573Q623.160028433321 370.1725861304351 623.160028433321 368.9968661289331L623.160028433321 368.9968661289331Q623.160028433321 366.8368224052435 623.7342172712638 364.56740937908853Q624.335748434823 362.2979963529336 625.9216033205698 362.2979963529336L625.9216033205698 362.2979963529336Q626.9059270427574 362.2979963529336 627.288719601386 362.79015821402743Q627.6715121600146 363.2823200751213 628.0816470442594 363.2823200751213L628.0816470442594 363.2823200751213L630.4330870472634 362.2979963529336Q631.4174107694511 362.2979963529336 633.8782200749203 364.7588056584028Q636.3390293803895 367.219614963872 639.5927661287321 371.15690985262273Q642.8465028770747 375.0942047413735 646.5924014865112 380.01582335231194Q650.3109577703314 384.93744196325036 654.1662256822331 389.66766429487456Q657.9941512685186 394.3978866264987 661.4392842961754 398.5265777945637Q664.8844173238324 402.6552689626287 667.6459922110812 405.034051291249L667.6459922110812 405.034051291249Q671.9660796584604 408.9713461799997 676.3135094314562 412.49850618450563Q680.6335968788353 416.0530085146278 685.0630536286799 419.68953782159895Q689.4925103785246 423.3260671285702 694.414128989463 427.45475829663513Q699.3357476004014 431.6107917903165 705.2416899335276 436.91520295988346L705.2416899335276 436.91520295988346Q705.4330862128418 437.10659923919775 706.2260136557152 437.10659923919775L706.2260136557152 437.10659923919775Q706.6361485399601 437.10659923919775 706.6361485399601 436.12227551701005Q706.6361485399601 435.1379517948224 706.6361485399601 433.77083551400614L706.6361485399601 433.77083551400614Q706.6361485399601 431.00926062675734 705.0502936542132 423.81822898966396Q703.4644387684664 416.6271973525706 700.6208369043686 407.0847257124733Q697.7772350402709 397.542254072376 694.0313364308345 386.6053238258462Q690.285437821398 375.69573590493263 686.0473773508677 365.5517331012762Q681.8093168803373 355.40773029761976 677.1884638511785 347.15034796148973Q672.5676108220196 338.8656232997434 668.2475233746403 334.35413957304985L668.2475233746403 334.35413957304985Q667.044461047522 333.17841957154786 666.5522991864282 330.79963724292764Q666.0601373253344 328.4481972399237 666.0601373253344 326.86234235417686L666.0601373253344 326.86234235417686Q666.0601373253344 325.49522607336064 667.9467577928608 323.8273442107648Q669.8060359347708 322.1321200225527 671.3918908205176 322.1321200225527L671.3918908205176 322.1321200225527Q673.7433308235215 322.1321200225527 676.6963019900846 326.86234235417686Q679.6492731566477 331.59256468580105 683.0123792074556 339.16638888152295Q686.3481429326473 346.74021307724485 689.7932759603041 356.20065774049317Q693.2384089879611 365.6611024037415 696.5741727131526 375.2856010206878L696.5741727131526 375.2856010206878Q700.5114676019034 386.71469312831147 703.9566006295603 397.8430196541556Q707.4017336572172 408.9713461799997 710.081281567617 418.595844796946Q712.7334871524005 428.24768573950854 714.4013690149964 435.9308792376958Q716.0692508775921 443.614072735883 716.479385761837 447.9341601832623ZM735.9471216006601 365.0595712401824L735.9471216006601 365.0595712401824Q735.9471216006601 365.4423637988109 734.580005319844 366.6454261259292Q733.2128890390276 367.8211461274312 731.3262685715011 369.10623543139843Q729.4669904295912 370.3639824097493 727.4983429852158 371.348306131937Q725.5296955408404 372.3326298541247 724.3539755393384 372.3326298541247L724.3539755393384 372.3326298541247Q723.561048096465 372.3326298541247 722.2759587924978 372.25060287727575Q720.9908694885306 372.1412335748104 719.7057801845632 371.5670447368676Q718.4480332062124 370.9655135733085 717.4637094840247 369.8718205486555Q716.479385761837 368.8054698496189 716.479385761837 367.02821868455777L716.479385761837 367.02821868455777Q716.479385761837 364.266643797309 718.4480332062124 361.80583449183973Q720.4166806505876 359.3450251863705 723.561048096465 359.3450251863705L723.561048096465 359.3450251863705Q724.1352369344078 359.3450251863705 726.2132536812486 359.8371870474644Q728.2912704280892 360.3293489085582 730.4513141517788 361.1222763514316Q732.6113578754686 361.915203794305 734.2792397380643 362.89952751649275Q735.9471216006601 363.8838512386804 735.9471216006601 365.0595712401824ZM742.4545950973453 438.69245412494456L742.4545950973453 438.69245412494456Q742.4545950973453 440.0595704057608 740.3765783505047 441.0438941279485Q738.3259039292803 442.0282178501362 737.3415802070928 442.0282178501362L737.3415802070928 442.0282178501362Q735.3729327627174 442.0282178501362 733.7870778769706 439.485381567818Q732.22856531684 436.91520295988346 731.0255029897218 433.57943923469185Q729.8497829882198 430.21633318388393 729.0568555453464 427.1813350404719Q728.2912704280892 424.1189945714436 727.8811355438444 422.9432745699416L727.8811355438444 422.9432745699416Q727.3069467059016 420.9746271255662 726.3226229837138 418.2130522383174Q725.3382992615262 415.45147735106866 724.4360025161874 412.90864106875046Q723.561048096465 410.33846246081595 722.9595169329058 408.36981501644055Q722.385328094963 406.4011675720652 722.385328094963 406.20977129275093L722.385328094963 406.20977129275093Q722.385328094963 403.44819640550213 723.4516787939998 401.0967564024982Q724.5453718186528 398.717974073878 726.1038843787832 398.717974073878L726.1038843787832 398.717974073878Q727.8811355438444 398.717974073878 729.8497829882198 401.4795489611268Q731.8184304325952 404.24112384837554 733.7050509001216 408.4791843189059Q735.5643290420315 412.68990246381986 737.1501839277784 417.7208903772236Q738.7086964879089 422.75187829062736 739.8844164894109 427.1813350404719Q741.0874788165291 431.6107917903165 741.7710369569373 434.8371862130428Q742.4545950973453 438.09092296138544 742.4545950973453 438.69245412494456ZM807.0371682031042 366.6454261259292L807.0371682031042 366.6454261259292Q804.4669895951696 369.5983972924923 799.7367672635454 372.44199915659Q795.0065449319212 375.2856010206878 790.3036649259135 377.664383349308Q785.5734425942893 380.01582335231194 782.0189402641671 381.6837052149077Q778.4917802596611 383.37892940311986 778.4917802596611 383.95311824106267L778.4917802596611 383.95311824106267Q778.4917802596611 384.55464940462184 779.2573653769183 387.5076205711849Q780.0502928197917 390.46059173774796 781.1439858444447 394.47991360334765Q782.2103365434813 398.5265777945637 783.4133988705997 402.846665241943Q784.5891188721017 407.1940950149386 785.3820463149751 410.52985874013024L785.3820463149751 410.52985874013024Q785.7648388736035 412.49850618450563 786.3663700371627 415.6428736303829Q786.9405588751055 418.8145834018766 787.4327207361995 421.9589508477539Q787.9248825972933 425.1033182936313 788.3350174815381 427.56412759910046Q788.7178100401667 430.02493690456964 788.7178100401667 430.21633318388393L788.7178100401667 430.21633318388393Q788.7178100401667 433.169304350447 787.7334863179789 436.31367179632434Q786.7491625957913 439.485381567818 784.5891188721017 439.485381567818L784.5891188721017 439.485381567818Q783.4133988705997 439.485381567818 782.4290751484119 438.5010578456303Q781.4447514262243 437.51673412344263 780.6518239833509 436.2316448194753Q779.8588965404775 434.9465555155081 779.476103981849 433.77083551400614Q779.0659690976041 432.5951155125042 779.0659690976041 431.99358434894503L779.0659690976041 431.99358434894503Q779.0659690976041 431.6107917903165 779.1753384000693 430.8178643474431Q779.2573653769183 430.02493690456964 779.2573653769183 429.040613182382L779.2573653769183 429.040613182382Q779.2573653769183 425.2947145729455 778.0816453754163 418.2130522383174L778.0816453754163 418.2130522383174Q777.6988528167877 416.0530085146278 776.523132815286 411.51418246231793Q775.3200704881675 407.00269873562434 774.1443504866655 402.2724764040002L774.1443504866655 402.2724764040002Q772.7772342058494 396.7493266295026 770.9999830407884 390.26919545843367L770.9999830407884 390.26919545843367Q770.207055597915 387.5076205711849 770.0156593186006 387.5076205711849L770.0156593186006 387.5076205711849Q768.6485430377844 387.5076205711849 765.3948062894418 389.1755024337807Q762.141069541099 390.8433842963765 758.012378373034 393.3041936018457Q753.8836872049691 395.7650029073149 749.3448611526591 398.63594709702903Q744.8060351003493 401.4795489611268 740.8687402115985 403.940358266596Q736.9314453228477 406.4011675720652 734.08784345875 408.069049434661Q731.2442415946522 409.73693129725683 730.6427104310932 409.73693129725683L730.6427104310932 409.73693129725683Q728.0725318231586 409.73693129725683 726.514019263028 407.98702245781203Q724.9281643772812 406.20977129275093 724.9281643772812 404.0497275690613L724.9281643772812 404.0497275690613Q724.9281643772812 402.846665241943 728.181901125624 400.60459454140437Q731.4356378739666 398.3351815152494 736.2478871824397 395.5736066280006Q741.0874788165291 392.8120317407519 746.6926555678757 389.8590605741888Q752.2978323192223 386.90608940762576 757.1100816276954 384.55464940462184Q761.9496732617848 382.17586707600157 765.2034100101274 380.61735451587106Q768.4298044328538 379.03149963012424 768.4298044328538 379.03149963012424L768.4298044328538 379.03149963012424Q766.679895593409 369.9811898511208 765.4768332662908 362.89952751649275L765.4768332662908 362.89952751649275Q764.492509544103 356.80218890405234 763.6175551243806 351.66183168818327Q762.7426007046582 346.5488167979306 762.7426007046582 346.1660242393021L762.7426007046582 346.1660242393021Q762.7426007046582 343.5958456313676 763.808951403695 342.31075632740027Q764.9026444283478 341.0530093490493 766.2697607091642 341.0530093490493L766.2697607091642 341.0530093490493Q768.4298044328538 341.0530093490493 769.031335596413 344.0059805156124L769.031335596413 344.0059805156124Q771.1913793201026 354.61480285474636 773.077999787629 362.89952751649275Q774.9372779295389 371.15690985262273 776.7145290946002 376.26992474287545L776.7145290946002 376.26992474287545Q778.4917802596611 375.8871321842469 782.8118677070405 374.02785404233686Q787.1319551544199 372.1412335748104 791.8621774860441 369.9811898511208Q796.592399817668 367.8211461274312 800.4203254039536 366.15326426483534Q804.2755933158554 364.4580400766232 804.8497821537982 364.4580400766232L804.8497821537982 364.4580400766232Q806.0528444809164 364.4580400766232 806.3262677370798 365.25096751949667Q806.6270333188592 366.0438949623701 807.0371682031042 366.6454261259292ZM829.2664789291761 365.0595712401824L829.2664789291761 365.0595712401824Q829.2664789291761 365.4423637988109 827.8993626483599 366.6454261259292Q826.5049040419273 367.8211461274312 824.6456259000173 369.10623543139843Q822.7863477581071 370.3639824097493 820.8177003137317 371.348306131937Q818.8490528693563 372.3326298541247 817.6459905422381 372.3326298541247L817.6459905422381 372.3326298541247Q816.880405424981 372.3326298541247 815.5953161210138 372.25060287727575Q814.3102268170466 372.1412335748104 813.0251375130794 371.5670447368676Q811.7400482091119 370.9655135733085 810.7557244869244 369.8718205486555Q809.7714007647365 368.8054698496189 809.7714007647365 367.02821868455777L809.7714007647365 367.02821868455777Q809.7714007647365 364.266643797309 811.7400482091119 361.80583449183973Q813.7086956534873 359.3450251863705 816.880405424981 359.3450251863705L816.880405424981 359.3450251863705Q817.4545942629237 359.3450251863705 819.5326110097645 359.8371870474644Q821.5832854309889 360.3293489085582 823.7706714802947 361.1222763514316Q825.9307152039845 361.915203794305 827.5985970665803 362.89952751649275Q829.2664789291761 363.8838512386804 829.2664789291761 365.0595712401824ZM835.7739524258612 438.69245412494456L835.7739524258612 438.69245412494456Q835.7739524258612 440.0595704057608 833.6959356790206 441.0438941279485Q831.6452612577963 442.0282178501362 830.6609375356087 442.0282178501362L830.6609375356087 442.0282178501362Q828.6922900912333 442.0282178501362 827.1064352054865 439.485381567818Q825.5205803197397 436.91520295988346 824.3448603182377 433.57943923469185Q823.1691403167357 430.21633318388393 822.3762128738623 427.1813350404719Q821.5832854309889 424.1189945714436 821.2004928723603 422.9432745699416L821.2004928723603 422.9432745699416Q820.5989617088011 420.9746271255662 819.6146379866135 418.2130522383174Q818.6303142644257 415.45147735106866 817.7553598447033 412.90864106875046Q816.880405424981 410.33846246081595 816.278874261422 408.36981501644055Q815.6773430978627 406.4011675720652 815.6773430978627 406.20977129275093L815.6773430978627 406.20977129275093Q815.6773430978627 403.44819640550213 816.7710361225157 401.0967564024982Q817.8647291471688 398.717974073878 819.4232417072991 398.717974073878L819.4232417072991 398.717974073878Q821.2004928723603 398.717974073878 823.1691403167357 401.4795489611268Q825.1377877611111 404.24112384837554 826.997065903021 408.4791843189059Q828.8836863705475 412.68990246381986 830.442198930678 417.7208903772236Q832.0280538164249 422.75187829062736 833.2037738179268 427.1813350404719Q834.3794938194288 431.6107917903165 835.0903942854533 434.8371862130428Q835.7739524258612 438.09092296138544 835.7739524258612 438.69245412494456ZM907.2194492613177 431.3920531853859L907.2194492613177 431.3920531853859Q907.2194492613177 432.5951155125042 906.4538641440605 433.77083551400614Q905.6609367011871 434.9465555155081 904.5672436765341 435.9308792376958Q903.5008929774975 436.91520295988346 902.2158036735301 437.5987611002916Q900.9307143695629 438.2823192406997 899.9463906473753 438.2823192406997L899.9463906473753 438.2823192406997Q896.6106269221835 438.2823192406997 891.3882427294656 436.8058336574182Q886.1658585367476 435.32934807413665 883.0214910908702 432.1849806282593L883.0214910908702 432.1849806282593Q879.6583850400624 428.8492169030677 877.1155487577442 424.22836387390885Q874.5453701498096 419.5801685191337 871.4010027039322 410.52985874013024L871.4010027039322 410.52985874013024Q869.2409589802427 419.1973759605051 866.3700147905287 427.6734969015658Q863.5264129264309 436.12227551701005 857.2376780346762 443.20393785163816L857.2376780346762 443.20393785163816Q856.8275431504313 443.614072735883 856.0346157075579 443.614072735883L856.0346157075579 443.614072735883Q854.6674994267415 443.614072735883 853.0816445409947 442.21961412945046Q851.5231319808644 440.85249784863424 851.5231319808644 439.485381567818L851.5231319808644 439.485381567818Q851.5231319808644 438.09092296138544 851.2223663990848 433.08727737359806Q850.9216008173051 428.0562894601943 850.5388082586766 421.84958154528863Q850.1286733744317 415.6428736303829 849.8552501182686 409.2447694361629Q849.554484536489 402.846665241943 849.554484536489 398.717974073878L849.554484536489 398.717974073878Q849.554484536489 396.7493266295026 849.7458808158032 393.49558988115996Q849.9372770951176 390.26919545843367 850.9216008173051 387.89041312981345L850.9216008173051 387.89041312981345Q851.1129970966196 387.5076205711849 852.3980864005867 386.33190056968294Q853.683175704554 385.12883824256465 855.2690305903008 385.12883824256465L855.2690305903008 385.12883824256465Q856.6361468711169 385.12883824256465 856.8275431504313 386.90608940762576Q857.0189394297455 388.68334057268686 857.0189394297455 390.8433842963765L857.0189394297455 390.8433842963765L857.0189394297455 421.9589508477539Q857.0189394297455 422.9432745699416 857.3197050115251 424.7205257350027Q857.6204705933047 426.4704345744475 858.2220017568637 427.2633620173209L858.2220017568637 427.2633620173209Q860.3820454805535 422.5331396856967 862.2413236224635 416.1350354914768Q864.1279440899899 409.73693129725683 865.8778529294347 403.940358266596Q867.6551040944959 398.1437852359352 869.4323552595569 394.09712104471913Q871.2096064246181 390.0504568535031 872.9868575896791 390.0504568535031L872.9868575896791 390.0504568535031Q874.9555050340545 390.0504568535031 876.1312250355564 390.8433842963765Q877.3069450370584 391.6363117392499 878.0998724799318 393.9877517422538L878.0998724799318 393.9877517422538Q879.0841962021196 399.7022977960657 879.6583850400624 404.13175454591027Q880.2599162036214 408.56121129575484 881.1348706233438 412.11571362587705Q882.0371673686826 415.6428736303829 883.7050492312784 418.7052140994113Q885.3729310938742 421.7675545684396 888.3259022604371 424.3103908507578L888.3259022604371 424.3103908507578Q891.0874771476862 426.8805694586924 894.5326101753429 428.0562894601943Q897.9777432029999 429.23200946169624 900.5479218109343 429.23200946169624L900.5479218109343 429.23200946169624Q901.7236418124363 429.23200946169624 903.0907580932525 428.73984760060245Q904.4852166996851 428.24768573950854 905.0594055376279 428.24768573950854L905.0594055376279 428.24768573950854Q905.8523329805013 428.24768573950854 906.5358911209095 429.6421443459411Q907.2194492613177 431.00926062675734 907.2194492613177 431.3920531853859ZM1060.7739499225968 464.28487090182443L1060.7739499225968 464.28487090182443Q1060.9926885275272 465.07779834469784 1060.9926885275272 465.761356485106Q1060.9926885275272 466.44491462551406 1060.9926885275272 466.82770718414264L1060.9926885275272 466.82770718414264Q1060.9926885275272 468.79635462851803 1060.0903917821884 469.58928207139144Q1059.2154373624662 470.38220951426484 1056.6452587545318 470.38220951426484L1056.6452587545318 470.38220951426484Q1054.2938187515279 470.38220951426484 1053.5008913086544 469.58928207139144L1053.5008913086544 469.58928207139144Q1052.3251713071522 468.41356206988945 1050.356523862777 463.49194345895097Q1048.3878764184014 458.5703248480126 1046.227832694712 451.871455072013Q1044.040446645406 445.1725852960135 1041.9897722241817 437.51673412344263Q1039.911755477341 429.8335406252554 1038.3532429172105 422.9432745699416L1038.3532429172105 422.9432745699416Q1036.1658568679045 423.9275982921293 1032.4473005840846 424.99394899116595Q1028.701401974648 426.0876420158189 1024.7641070858972 427.0719657380066L1024.7641070858972 427.0719657380066Q1020.2252810335873 428.0562894601943 1015.3036624226489 429.23200946169624L1015.3036624226489 429.23200946169624Q1013.5264112575877 437.7081304027569 1012.6514568378653 443.696099712732Q1011.776502418143 449.71141134832345 1011.0656019521185 453.53933693460885Q1010.3820438117103 457.3946048465106 1009.3156931126738 459.2538829884207Q1008.2220000880208 461.1405034559471 1005.8705600850168 461.1405034559471L1005.8705600850168 461.1405034559471Q1004.28470519927 461.1405034559471 1003.108985197768 459.363252290886Q1001.933265196266 457.5860011258249 1001.933265196266 454.0314987957027L1001.933265196266 454.0314987957027Q1001.933265196266 452.2815899562579 1002.9175889184538 445.77411645957267Q1003.9019126406414 439.2666429628874 1005.0776326421434 431.31002620853695Q1006.2533526436454 423.3260671285702 1007.4290726451474 415.45147735106866Q1008.6047926466493 407.57688757356715 1009.0149275308942 403.0654038468736L1009.0149275308942 403.0654038468736Q1009.2063238102083 400.68662151825333 1010.3000168348614 395.3822103486864Q1011.3663675338981 390.0504568535031 1012.5420875354001 384.4452801021565Q1013.7451498625184 378.84010335081 1014.9208698640203 374.3012772985001Q1016.0965898655221 369.7897935718065 1016.4793824241507 369.1882624082474L1016.4793824241507 369.1882624082474Q1019.6510921956445 361.915203794305 1020.5260466153669 354.23201029611783Q1021.4010010350893 346.5488167979306 1021.8931628961831 340.15071260371064Q1022.3853247572769 333.7526084094907 1023.5883870843951 329.733286543891Q1024.7641070858972 325.6866223526749 1028.5100056953338 325.6866223526749L1028.5100056953338 325.6866223526749Q1029.4943294175214 325.6866223526749 1030.5606801165582 327.27247723842174Q1031.6543731412112 328.83098979855225 1032.6386968633988 330.9910335222419Q1033.6230205855863 333.17841957154786 1034.1972094235293 335.2290939927722Q1034.798740587088 337.3071107396129 1034.9901368664027 338.4828307411148L1034.9901368664027 338.4828307411148Q1035.181533145717 339.6585507426168 1035.4822987274965 343.213053072739Q1035.7830643092761 346.74021307724485 1036.0838298910553 350.9782735477752Q1036.384595472835 355.21633401830553 1036.6580187289983 359.2629982095215Q1036.958784310778 363.2823200751213 1037.150180590092 365.4423637988109L1037.150180590092 365.4423637988109Q1037.7517117536513 371.9498372954962 1039.0368010576185 380.01582335231194Q1040.3218903615857 388.0818094091277 1041.689006642402 395.1908140693721Q1043.0561229232185 402.2724764040002 1044.2591852503365 407.0847257124733Q1045.4349052518387 411.92431734656276 1046.0090940897812 411.92431734656276L1046.0090940897812 411.92431734656276Q1046.8020215326546 411.92431734656276 1048.0871108366223 411.51418246231793Q1049.3722001405895 411.13138990368935 1050.5479201420912 411.13138990368935L1050.5479201420912 411.13138990368935Q1052.133775027838 411.13138990368935 1052.133775027838 412.68990246381986L1052.133775027838 412.68990246381986Q1052.133775027838 414.2757573495667 1051.3408475849646 415.26008107175437Q1050.5479201420912 416.24440479394207 1049.6729657223686 417.0373322368155Q1048.7706689770303 417.8302596796889 1048.0871108366223 418.4044485176317Q1047.4035526962139 419.00597968119087 1047.4035526962139 419.79890712406427L1047.4035526962139 419.79890712406427Q1047.4035526962139 421.3574196841948 1049.1808038612749 427.86489318088L1049.1808038612749 427.86489318088L1052.3251713071522 439.485381567818Q1052.707963865781 441.0438941279485 1054.1024224722132 444.78979273738497Q1055.4695387530296 448.53569134682147 1056.9460243363114 452.55501321242116Q1058.4225099195928 456.6016774036372 1059.5982299210946 460.0468104312941Q1060.7739499225968 463.49194345895097 1060.7739499225968 464.28487090182443ZM1017.0809135877099 419.1973759605051L1017.0809135877099 419.1973759605051Q1018.2566335892119 419.1973759605051 1021.4010010350893 418.513817820097Q1024.572710806583 417.8302596796889 1027.9084745317746 416.84593595750124Q1031.2442382569661 415.86161223531354 1033.8144168649005 414.87728851312585Q1036.384595472835 413.89296479093815 1036.384595472835 413.291433627379L1036.384595472835 413.291433627379Q1036.384595472835 412.68990246381986 1035.6736950068107 410.2290931583506Q1034.9901368664027 407.76828385288144 1034.1151824466801 403.940358266596Q1033.2128857013413 400.1124326803105 1032.2285619791537 395.1908140693721Q1031.2442382569661 390.26919545843367 1030.478653139709 384.7460456839361L1030.478653139709 384.7460456839361Q1030.068518255464 381.19154335381387 1029.4943294175214 375.0942047413735Q1028.8927982539622 368.9968661289331 1028.291267090403 362.98155449334166Q1027.7170782524604 356.99358518336663 1027.3069433682153 352.646155410371Q1026.924150809587 348.32606796299166 1026.924150809587 348.32606796299166L1026.924150809587 348.32606796299166Q1026.924150809587 348.32606796299166 1026.3226196460278 351.1696698270894Q1025.7484308080848 354.04061401680354 1025.0648726676768 357.4857470444604Q1024.3539722016521 360.93088007211736 1023.8618103405585 363.96587821552936Q1023.3696484794647 367.02821868455777 1023.3696484794647 367.4110112431863L1023.3696484794647 367.4110112431863L1023.3696484794647 372.9341610176839Q1023.3696484794647 373.3169535763124 1022.8774866183709 376.37929404534077Q1022.3853247572769 379.4416345143691 1021.6197396400197 384.062487543528Q1020.8268121971465 388.68334057268686 1019.9245154518077 394.09712104471913Q1019.0495610320853 399.5109015167514 1018.2566335892119 404.4325201276898Q1017.4637061463385 409.35413873862825 1016.9715442852447 413.1820643249137Q1016.4793824241507 417.0373322368155 1016.4793824241507 418.4044485176317L1016.4793824241507 418.4044485176317Q1016.4793824241507 419.1973759605051 1017.0809135877099 419.1973759605051ZM1141.8986300262318 419.1973759605051L1141.8986300262318 419.1973759605051Q1142.8829537484194 420.1816996826928 1142.8829537484194 420.3730959620071L1142.8829537484194 420.3730959620071Q1142.8829537484194 420.78323084625197 1141.7892607237663 422.75187829062736Q1140.72291002473 424.7205257350027 1138.9456588596686 426.8805694586924Q1137.1684076946076 429.040613182382 1135.090390947767 430.7084950449778Q1133.0397165265426 432.3763769075736 1131.0710690821675 432.3763769075736L1131.0710690821675 432.3763769075736Q1126.9423779141025 432.3763769075736 1124.3721993061677 430.7084950449778Q1121.8020206982333 429.040613182382 1120.1341388356373 426.4704345744475Q1118.4662569730417 423.9275982921293 1117.591302553319 420.86525782310093Q1116.6890058079807 417.8302596796889 1116.1148169700377 415.06868479244014L1116.1148169700377 415.06868479244014Q1115.7046820857927 413.6742261860075 1115.3218895271643 413.6742261860075L1115.3218895271643 413.6742261860075Q1114.720358363605 413.6742261860075 1112.943107198544 417.9122866565379Q1111.1931983590994 422.1503471270682 1109.1151816122588 427.1813350404719Q1107.0371648654182 432.1849806282593 1105.177886723508 436.42304109878967Q1103.3186085815978 440.66110156931995 1102.7170774180386 440.66110156931995L1102.7170774180386 440.66110156931995Q1099.1625750879166 440.66110156931995 1096.7017657824472 437.5987611002916Q1094.2409564769782 434.56376295687954 1092.7644708936964 430.51709876566355Q1091.287985310415 426.4704345744475 1090.5224001931579 422.2597164295335Q1089.7294727502845 418.02165595900317 1089.5380764709703 415.6428736303829L1089.5380764709703 415.6428736303829Q1088.936545307411 410.33846246081595 1086.967897863036 397.9250466310046Q1084.9992504186603 385.5389731268095 1083.6321341378439 367.8211461274312L1083.6321341378439 367.8211461274312Q1083.2219992535993 364.0752475179947 1082.7298373925055 361.0129070489663Q1082.2376755314117 357.9779089055543 1081.6634866934687 354.23201029611783Q1081.0619555299095 350.48611168668134 1080.6791629712811 345.75588935505715Q1080.269028087036 341.0530093490493 1080.269028087036 334.16274329373556L1080.269028087036 334.16274329373556Q1080.269028087036 333.7526084094907 1080.4604243663503 331.59256468580105Q1080.6791629712811 329.43252096211137 1081.0619555299095 326.86234235417686Q1081.4447480885378 324.31950607185865 1082.3470448338767 322.3508586274833Q1083.2219992535993 320.3822111831079 1084.397719255101 320.3822111831079L1084.397719255101 320.3822111831079Q1085.7921778615337 320.3822111831079 1086.967897863036 322.0500930457037Q1088.1436178645376 323.71797490829954 1089.0459146098765 325.87801863198916Q1089.9208690295986 328.03806235567885 1090.3036615882274 330.00670980005424Q1090.713796472472 331.9753572444296 1090.713796472472 332.768284687303L1090.713796472472 332.768284687303Q1090.713796472472 335.721255853866 1090.3036615882274 338.2914344618006Q1089.9208690295986 340.8342707441188 1089.9208690295986 343.0216567934247L1089.9208690295986 343.0216567934247Q1089.9208690295986 345.9746279599878 1090.4130308906924 350.48611168668134Q1090.9051927517862 355.02493773899124 1091.69812019466 359.7551600706154Q1092.4910476375335 364.4580400766232 1093.065236475476 368.88749682646784Q1093.6667676390352 373.3169535763124 1094.0495601976636 376.0785284635612L1094.0495601976636 376.0785284635612Q1094.0495601976636 376.26992474287545 1094.4596950819086 378.84010335081Q1094.842487640537 381.4102819587445 1095.3346495016308 385.23820754503Q1095.826811362725 389.0661331313154 1096.3189732238188 393.49558988115996Q1096.8111350849126 397.9250466310046 1097.4126662484719 402.1631071015349Q1097.9868550864144 406.4011675720652 1098.4790169475082 409.6549043204078Q1098.9711788086024 412.90864106875046 1099.1625750879166 414.2757573495667L1099.1625750879166 414.2757573495667Q1099.1625750879166 414.87728851312585 1099.4633406696962 415.9436392121625Q1099.7641062514758 417.0373322368155 1100.064871833255 418.4044485176317Q1100.3656374150346 419.79890712406427 1100.7484299736634 420.9746271255662Q1101.1312225322918 422.1503471270682 1101.732753695851 422.75187829062736L1101.732753695851 422.75187829062736Q1102.9084736973527 420.3730959620071 1104.7950941648796 415.45147735106866Q1106.6543723067894 410.52985874013024 1108.73238905363 405.4168438498775Q1110.7830634748543 400.3038289596248 1112.6696839423807 396.44856104772305Q1114.528962084291 392.6206354614376 1115.8960783651073 392.6206354614376L1115.8960783651073 392.6206354614376Q1117.4819332508541 392.6206354614376 1118.4662569730417 393.22216662499676Q1119.4505806952293 393.7963554629395 1121.036435580976 394.2064903471844L1121.036435580976 394.2064903471844Q1123.0050830253517 394.9720754644415 1123.0050830253517 396.25716476840876Q1123.0050830253517 397.542254072376 1123.38787558398 399.3195052374371L1123.38787558398 399.3195052374371Q1123.7706681426089 401.67094524044103 1124.6729648879473 405.5262131523428Q1125.5479193076699 409.35413873862825 1126.7236393091716 412.9906680455994Q1127.92670163629 416.6271973525706 1129.4852141964207 419.1973759605051Q1131.0710690821675 421.7675545684396 1132.6295816422976 421.7675545684396L1132.6295816422976 421.7675545684396Q1133.4225090851714 421.7675545684396 1134.8169676916036 419.68953782159895Q1136.18408397242 417.6115210747583 1138.535523975424 417.420124795444L1138.535523975424 417.420124795444Q1138.9456588596686 417.420124795444 1139.9299825818566 417.9122866565379Q1140.9143063040442 418.4044485176317 1141.8986300262318 419.1973759605051ZM1166.096588196679 365.0595712401824L1166.096588196679 365.0595712401824Q1166.096588196679 365.4423637988109 1164.729471915863 366.6454261259292Q1163.3623556350467 367.8211461274312 1161.4757351675203 369.10623543139843Q1159.61645702561 370.3639824097493 1157.647809581235 371.348306131937Q1155.6791621368593 372.3326298541247 1154.5034421353575 372.3326298541247L1154.5034421353575 372.3326298541247Q1153.7105146924841 372.3326298541247 1152.425425388517 372.25060287727575Q1151.1403360845497 372.1412335748104 1149.8552467805825 371.5670447368676Q1148.5974998022311 370.9655135733085 1147.6131760800436 369.8718205486555Q1146.628852357856 368.8054698496189 1146.628852357856 367.02821868455777L1146.628852357856 367.02821868455777Q1146.628852357856 364.266643797309 1148.5974998022311 361.80583449183973Q1150.5661472466068 359.3450251863705 1153.7105146924841 359.3450251863705L1153.7105146924841 359.3450251863705Q1154.2847035304271 359.3450251863705 1156.3627202772677 359.8371870474644Q1158.4407370241083 360.3293489085582 1160.6007807477977 361.1222763514316Q1162.7608244714875 361.915203794305 1164.428706334083 362.89952751649275Q1166.096588196679 363.8838512386804 1166.096588196679 365.0595712401824ZM1172.6040616933642 438.69245412494456L1172.6040616933642 438.69245412494456Q1172.6040616933642 440.0595704057608 1170.5260449465236 441.0438941279485Q1168.4753705252992 442.0282178501362 1167.4910468031117 442.0282178501362L1167.4910468031117 442.0282178501362Q1165.5223993587365 442.0282178501362 1163.9365444729897 439.485381567818Q1162.3780319128591 436.91520295988346 1161.1749695857407 433.57943923469185Q1159.999249584239 430.21633318388393 1159.206322141365 427.1813350404719Q1158.4407370241083 424.1189945714436 1158.0306021398633 422.9432745699416L1158.0306021398633 422.9432745699416Q1157.4564133019207 420.9746271255662 1156.4720895797327 418.2130522383174Q1155.4877658575451 415.45147735106866 1154.5854691122063 412.90864106875046Q1153.7105146924841 410.33846246081595 1153.108983528925 408.36981501644055Q1152.534794690982 406.4011675720652 1152.534794690982 406.20977129275093L1152.534794690982 406.20977129275093Q1152.534794690982 403.44819640550213 1153.6011453900187 401.0967564024982Q1154.6948384146717 398.717974073878 1156.2533509748023 398.717974073878L1156.2533509748023 398.717974073878Q1158.0306021398633 398.717974073878 1159.999249584239 401.4795489611268Q1161.967897028614 404.24112384837554 1163.8545174961405 408.4791843189059Q1165.7137956380507 412.68990246381986 1167.2996505237975 417.7208903772236Q1168.858163083928 422.75187829062736 1170.0338830854298 427.1813350404719Q1171.2369454125483 431.6107917903165 1171.9205035529562 434.8371862130428Q1172.6040616933642 438.09092296138544 1172.6040616933642 438.69245412494456ZM1231.4720887453113 395.5736066280006L1231.4720887453113 395.5736066280006Q1231.4720887453113 396.9407229088169 1230.2963687438091 397.8430196541556Q1229.0933064166911 398.717974073878 1227.5347938565606 399.3195052374371Q1225.9489389708137 399.8936940753799 1224.3904264106832 400.1944596571595Q1222.8045715249364 400.4952252389391 1221.8202478027488 400.4952252389391L1221.8202478027488 400.4952252389391Q1218.8672766361856 400.4952252389391 1217.882952913998 400.1124326803105Q1216.8986291918104 399.7022977960657 1216.2970980282512 399.7022977960657L1216.2970980282512 399.7022977960657Q1211.3754794173128 399.7022977960657 1208.4225082507496 400.4952252389391Q1205.4695370841864 401.2881526818125 1203.8016552215909 403.0654038468736Q1202.1337733589949 404.81531268631835 1201.641611497901 407.4948605967182Q1201.1494496368073 410.14706618150166 1201.1494496368073 413.89296479093815L1201.1494496368073 413.89296479093815Q1201.1494496368073 420.1816996826928 1201.641611497901 423.9275982921293Q1202.1337733589949 427.6734969015658 1202.6259352200886 430.02493690456964Q1203.1180970811824 432.3763769075736 1203.6102589422762 433.66146621154087Q1204.1024208033705 434.9465555155081 1204.1024208033705 436.12227551701005L1204.1024208033705 436.12227551701005Q1204.1024208033705 437.7081304027569 1202.4345389407745 439.485381567818Q1200.766657078179 441.23529040726277 1199.3721984717463 441.23529040726277L1199.3721984717463 441.23529040726277Q1197.0207584687423 441.23529040726277 1195.134138001216 437.0245722623488Q1193.2748598593057 432.78651179181844 1191.9897705553385 426.9625964355413Q1190.7046812513713 421.1660234048805 1189.9390961341142 415.45147735106866Q1189.1461686912407 409.73693129725683 1189.1461686912407 406.78396013069374L1189.1461686912407 406.78396013069374Q1189.1461686912407 403.44819640550213 1189.7203575291837 400.3858559364738Q1190.321888692743 397.3508577930617 1191.3062124149305 395.0814447669068Q1192.2905361371181 392.8120317407519 1193.4662561386199 391.44491545993566Q1194.641976140122 390.0504568535031 1195.84503846724 390.0504568535031L1195.84503846724 390.0504568535031Q1196.8293621894281 390.0504568535031 1197.4035510273707 390.7613573195275Q1198.00508219093 391.44491545993566 1198.3878747495587 392.31986987965803Q1198.7980096338033 393.22216662499676 1199.290171494897 393.90572476540484Q1199.7823333559909 394.589282905813 1200.547918473248 394.589282905813L1200.547918473248 394.589282905813Q1202.3251696383095 394.589282905813 1206.2624645270598 392.8120317407519Q1210.1997594158106 391.0347805756908 1215.9143054696224 391.0347805756908L1215.9143054696224 391.0347805756908Q1221.2187166391896 391.0347805756908 1223.8982645495894 391.33554615747033Q1226.550470134373 391.6363117392499 1229.0933064166911 392.6206354614376L1229.0933064166911 392.6206354614376Q1229.6948375802504 392.8120317407519 1230.569791999973 393.49558988115996Q1231.4720887453113 394.2064903471844 1231.4720887453113 395.5736066280006ZM1306.6634841902041 368.9968661289331L1306.6634841902041 368.9968661289331Q1307.4564116330776 369.1882624082474 1307.4564116330776 370.1725861304351L1307.4564116330776 370.1725861304351Q1307.4564116330776 371.5670447368676 1306.0892953522612 373.04353032014916Q1304.694836745829 374.5200159034307 1304.694836745829 376.26992474287545L1304.694836745829 376.26992474287545Q1304.694836745829 376.68005962712033 1304.6128097689798 379.22289590943853Q1304.5034404665143 381.79307451737304 1304.5034404665143 384.93744196325036Q1304.5034404665143 388.0818094091277 1304.3940711640494 390.8433842963765Q1304.3120441872002 393.6049591836253 1304.3120441872002 393.9877517422538L1304.3120441872002 393.9877517422538L1304.3120441872002 413.4828299066933Q1304.3120441872002 413.6742261860075 1304.120647907886 416.24440479394207Q1303.9019093029556 418.8145834018766 1303.4097474418613 422.3417434063825Q1302.9175855807675 425.8962457365047 1302.4254237196737 429.7241713227901Q1301.93326185858 433.57943923469185 1301.359073020637 436.31367179632434L1301.359073020637 436.31367179632434Q1301.1676767413228 437.10659923919775 1300.265379995984 437.51673412344263Q1299.3904255762618 437.89952668207115 1298.2967325516088 438.2002922638507Q1297.230381852572 438.5010578456303 1296.2460581303844 438.5830848224793Q1295.2617344081968 438.69245412494456 1295.042995803266 438.69245412494456L1295.042995803266 438.69245412494456Q1292.8829520795766 438.69245412494456 1290.4221427741072 436.12227551701005Q1287.9613334686383 433.57943923469185 1285.8012897449485 430.4077294631982Q1283.6412460212587 427.2633620173209 1282.0553911355119 424.5017871300721Q1280.4968785753813 421.7675545684396 1280.2781399704509 421.3574196841948L1280.2781399704509 421.3574196841948Q1279.5125548531937 424.1189945714436 1278.5282311310061 426.9625964355413Q1277.5439074088185 429.8335406252554 1276.3408450817 432.1849806282593Q1275.1651250801983 434.56376295687954 1273.6886394969165 436.12227551701005Q1272.2121539136351 437.7081304027569 1270.4349027485741 437.7081304027569L1270.4349027485741 437.7081304027569Q1268.0834627455702 437.7081304027569 1265.5132841376358 435.32934807413665Q1262.9704478553172 432.97790807113273 1260.318242270534 429.23200946169624Q1257.6386943601342 425.4861108522598 1255.2872543571302 420.86525782310093Q1252.9358143541263 416.24440479394207 1251.1585631890653 411.92431734656276Q1249.3813120240043 407.57688757356715 1248.2876189993513 403.83098896413065Q1247.2212683003145 400.1124326803105 1247.2212683003145 397.9250466310046L1247.2212683003145 397.9250466310046Q1247.2212683003145 397.1594615137475 1248.0141957431879 395.9563991866292Q1248.779780860445 394.7806791851272 1250.1742394668777 394.7806791851272L1250.1742394668777 394.7806791851272Q1252.9358143541263 394.7806791851272 1254.111534355628 396.5579303501883L1254.111534355628 396.5579303501883Q1254.3029306349422 396.7493266295026 1255.3966236595957 400.1124326803105Q1256.462974358632 403.44819640550213 1258.4316218030076 407.98702245781203Q1260.4002692473828 412.49850618450563 1263.0524748321664 417.33809781859503Q1265.7320227425662 422.1503471270682 1269.0677864677577 425.4861108522598L1269.0677864677577 425.4861108522598Q1270.4349027485741 422.9432745699416 1271.3371994939125 419.79890712406427Q1272.2121539136351 416.6271973525706 1272.8136850771944 413.6742261860075Q1273.3878739151369 410.72125501944447 1273.6066125200678 408.2604457139753Q1273.798008799382 405.79963640850605 1273.798008799382 404.24112384837554L1273.798008799382 404.24112384837554Q1273.3878739151369 402.6552689626287 1273.1964776358227 401.0967564024982L1273.1964776358227 401.0967564024982Q1273.0050813565085 399.7022977960657 1272.895712054043 398.3351815152494Q1272.8136850771944 396.9407229088169 1272.8136850771944 395.9563991866292L1272.8136850771944 395.9563991866292Q1272.8136850771944 391.0347805756908 1276.7509799659451 391.0347805756908L1276.7509799659451 391.0347805756908Q1279.7039511325079 391.0347805756908 1281.2624636926384 392.92140104321714Q1282.8483185783853 394.7806791851272 1283.6412460212587 397.24148849059645Q1284.434173464132 399.7022977960657 1284.7075967202954 402.0810801246859Q1285.008362302075 404.4325201276898 1285.4184971863197 405.4168438498775L1285.4184971863197 405.4168438498775Q1286.9770097464507 409.95566990218737 1288.2620990504179 413.89296479093815Q1289.547188354385 417.8302596796889 1292.6915558002624 421.9589508477539L1292.6915558002624 421.9589508477539Q1293.4844832431359 421.3574196841948 1293.9766451042296 419.88093410091324Q1294.4688069653234 418.4044485176317 1294.6602032446376 416.84593595750124Q1294.8515995239518 415.26008107175437 1294.8515995239518 413.9749917677871Q1294.8515995239518 412.68990246381986 1294.8515995239518 412.11571362587705L1294.8515995239518 412.11571362587705L1294.8515995239518 372.9341610176839Q1294.8515995239518 371.7584410161819 1295.8359232461394 370.7741172939942Q1296.8202469683274 369.7897935718065 1298.2147055747596 368.9968661289331Q1299.581821855576 368.2039386860597 1300.8669111595432 367.71177682496585Q1302.1520004635104 367.219614963872 1302.7261893014534 367.219614963872L1302.7261893014534 367.219614963872Q1303.710513023641 367.219614963872 1304.6128097689798 367.8211461274312Q1305.487764188702 368.395334965374 1306.6634841902041 368.9968661289331ZM1416.9077410752252 414.6585499081952L1416.9077410752252 414.6585499081952Q1416.9077410752252 418.2130522383174 1413.6540043268824 423.43543643103544Q1410.4276099041563 428.6578206237534 1404.9044601296587 433.57943923469185Q1399.381310355161 438.5010578456303 1392.1082517412187 441.9461908732872Q1384.8351931272764 445.3913239009441 1376.9606033497748 445.3913239009441L1376.9606033497748 445.3913239009441Q1373.4061010196524 445.3913239009441 1369.4688061309016 444.18826157382586Q1365.5315112421513 443.01254157232387 1361.7856126327147 440.7431285461689Q1358.039714023278 438.5010578456303 1355.0867428567149 435.2473210972877Q1352.1337716901521 431.99358434894503 1350.7666554093357 427.86489318088L1350.7666554093357 427.86489318088Q1349.590935407834 429.040613182382 1347.923053545238 431.80218806963074Q1346.2278293570257 434.56376295687954 1344.2591819126505 437.4073648209773Q1342.290534468275 440.25096668507507 1339.939094465271 442.3289834319158Q1337.5876544622674 444.4070001787564 1335.0174758543326 444.4070001787564L1335.0174758543326 444.4070001787564Q1332.4472972463982 444.4070001787564 1330.7794153838026 441.7274522683566Q1329.1115335212066 439.07524668357314 1328.127209799019 435.8215099352305Q1327.142886076831 432.5951155125042 1326.7600935182027 429.6421443459411Q1326.349958633958 426.6891731793781 1326.349958633958 426.2790382951332L1326.349958633958 426.2790382951332Q1326.349958633958 423.9275982921293 1327.7444172403902 417.33809781859503Q1329.1115335212066 410.72125501944447 1331.8731084084552 403.6395926848164Q1334.6346832957042 396.5579303501883 1338.8454014406184 391.0347805756908Q1343.0834619111488 385.5389731268095 1348.79800796496 385.5389731268095L1348.79800796496 385.5389731268095Q1350.95805168865 385.5389731268095 1351.6416098290583 387.3982512687196Q1352.3525102950825 389.284871736246 1352.3525102950825 391.0347805756908L1352.3525102950825 391.0347805756908L1352.3525102950825 396.9407229088169Q1353.3368340172701 397.7336503516903 1354.403184716307 398.03441593346986Q1355.49687774096 398.3351815152494 1356.371832160682 398.82734337634326Q1357.274128906021 399.3195052374371 1357.7662907671152 400.3038289596248Q1358.2584526282085 401.2881526818125 1358.2584526282085 403.44819640550213L1358.2584526282085 403.44819640550213Q1358.2584526282085 404.81531268631835 1358.039714023278 405.90900571097137Q1357.848317743964 407.00269873562434 1357.848317743964 407.98702245781203L1357.848317743964 407.98702245781203Q1357.848317743964 413.10003734806475 1358.6412451868373 418.02165595900317Q1359.4341726297107 422.9432745699416 1361.7856126327147 426.77120015622705Q1364.164394961335 430.6264680681288 1368.2930861293999 433.08727737359806Q1372.4217772974648 435.54808667906724 1379.3120433527788 435.54808667906724L1379.3120433527788 435.54808667906724Q1387.9795605731533 435.54808667906724 1393.9675298831285 431.88421504647977Q1399.9828415187203 428.24768573950854 1404.029505709936 423.81822898966396Q1408.048827575536 419.3887722398194 1410.4276099041563 415.7522429328482Q1412.7790499071602 412.11571362587705 1414.364904792907 412.11571362587705L1414.364904792907 412.11571362587705Q1416.9077410752252 412.11571362587705 1416.9077410752252 414.6585499081952ZM1347.8136842427725 406.01837501343664L1347.8136842427725 406.01837501343664Q1347.8136842427725 405.22544757056323 1347.4308916841442 404.5418894301551Q1347.0207567998991 403.83098896413065 1347.0207567998991 403.2568001261879L1347.0207567998991 403.2568001261879Q1347.0207567998991 402.46387268331443 1347.4308916841442 401.8623415197553Q1347.8136842427725 401.2881526818125 1347.8136842427725 400.3038289596248L1347.8136842427725 400.3038289596248Q1347.8136842427725 399.7022977960657 1347.4308916841442 399.4015322142861Q1347.0207567998991 399.1281089581228 1347.0207567998991 398.717974073878L1347.0207567998991 398.717974073878Q1345.2435056348381 399.1281089581228 1343.384227492928 402.0810801246859Q1341.5249493510182 405.034051291249 1339.829725162806 408.9713461799997Q1338.16184330021 412.90864106875046 1337.1775195780224 416.9279629343502Q1336.1931958558348 420.9746271255662 1336.1931958558348 423.5174634078844L1336.1931958558348 423.5174634078844Q1336.1931958558348 424.911922014317 1336.9861232987082 428.0562894601943Q1337.7790507415816 431.20065690607163 1338.7633744637692 432.1849806282593L1338.7633744637692 432.1849806282593Q1342.0991381889608 425.2947145729455 1344.9700823786748 418.8145834018766Q1347.8136842427725 412.3071099051913 1347.8136842427725 406.01837501343664ZM1445.4531290186678 449.9028076276376L1445.4531290186678 449.9028076276376Q1445.4531290186678 451.4886625133845 1444.277409017166 452.2815899562579Q1443.1016890156639 453.047175073515 1441.515834129917 453.047175073515L1441.515834129917 453.047175073515Q1439.738582964856 453.047175073515 1437.8793048229459 449.71141134832345Q1436.0200266810361 446.3756476231318 1434.2427755159747 441.23529040726277Q1432.4655243509137 436.12227551701005 1430.879669465167 430.13430620703497Q1429.3211569050363 424.1189945714436 1428.1454369035346 418.89661037872554Q1426.9423745764161 413.6742261860075 1426.2588164360081 410.14706618150166Q1425.5752582955997 406.59256385137945 1425.5752582955997 406.20977129275093L1425.5752582955997 406.20977129275093Q1425.5752582955997 405.4168438498775 1424.8917001551918 402.0810801246859Q1424.2081420147838 398.717974073878 1423.1144489901308 391.6363117392499Q1422.0207559654777 384.55464940462184 1420.7630089871268 373.23492659946345Q1419.4779196831596 361.915203794305 1418.083461076727 345.1817005171144L1418.083461076727 345.1817005171144Q1418.083461076727 343.4044493520533 1418.6849922402862 340.6428744648045Q1419.2865234038454 337.8812995775557 1421.4465671275348 337.8812995775557L1421.4465671275348 337.8812995775557Q1424.2081420147838 337.8812995775557 1425.6846275980652 341.6271981869922Q1427.161113181347 345.3730967964286 1428.0360676010691 350.8962465709262Q1428.9110220207917 356.39205401980746 1429.3211569050363 362.40736565539885Q1429.7039494636651 368.395334965374 1430.305480627224 372.9341610176839L1430.305480627224 372.9341610176839Q1431.0984080700978 379.22289590943853 1431.7819662105057 384.36325312530755Q1432.4655243509137 389.47626801556027 1433.1490824913221 394.47991360334765Q1433.83264063173 399.5109015167514 1434.9263336563831 405.034051291249Q1436.0200266810361 410.52985874013024 1437.5785392411667 417.22872851612976L1437.5785392411667 417.22872851612976L1445.4531290186678 449.9028076276376Z " fill="#d3d3d3" transform="matrix(0.6053464840537974,0,0,0.6053464840537973,0,60.656766572977304)"/></g></svg>